# xmcd
#
# Track frame offsets: 
#        150
#        13708
#        30560
#        50643
#        69336
#        85481
#        95192
#        106908
#        120167
#        137380
#        150660
#        171754
#        193689
#        216655
#        233771
#        248769
#        262703
#        278639
#        290874
#        314727
#        331906
#        344170
#
# Disc length: 4735 seconds
#
# Revision: 2
# Processed by: cddbd v1.5.2PL0 Copyright (c) Steve Scherf et al.
# Submitted via: ExactAudioCopy v1.0b3
#
DISCID=46127d16
DTITLE=Машина времени - Избранное. Том 2. CD 3
DYEAR=2000
DGENRE=Rock
TTITLE0=Скачки
TTITLE1=Поворот
TTITLE2=Родной дом
TTITLE3=Свеча
TTITLE4=Кафе "Лира"
TTITLE5=В Никитском ботаническом саду
TTITLE6=Ах, что за луна
TTITLE7=Снег
TTITLE8=Скворец
TTITLE9=Рыбка в банке
TTITLE10=Наш остров (Где же наш последний дом...)
TTITLE11=Караван
TTITLE12=Туман
TTITLE13=Если бы мы были взрослей
TTITLE14=Скажи, мой друг... (Памяти Джона Леннона)
TTITLE15=Театр
TTITLE16=Костер
TTITLE17=Первые и вторые
TTITLE18=Я сюда еще вернусь
TTITLE19=Первый шаг
TTITLE20=Про новый дом
TTITLE21=Про собственное лицо
EXTD=
EXTT0=
EXTT1=
EXTT2=
EXTT3=
EXTT4=
EXTT5=
EXTT6=
EXTT7=
EXTT8=
EXTT9=
EXTT10=
EXTT11=
EXTT12=
EXTT13=
EXTT14=
EXTT15=
EXTT16=
EXTT17=
EXTT18=
EXTT19=
EXTT20=
EXTT21=
PLAYORDER=
